<mxfile host="app.diagrams.net" modified="2024-06-12T13:11:19.000Z" agent="Mozilla/5.0 (Windows NT 10.0; Win64; x64) AppleWebKit/537.36 (KHTML, like Gecko) Chrome/125.0.0.0 Safari/537.36" etag="nva1hO_9E4U2Fw8BiGta" version="24.5.3" type="github">
  <diagram name="Page-1" id="AG5_23tD9WazgZ3pk416">
    <mxGraphModel dx="3550" dy="1925" grid="1" gridSize="10" guides="1" tooltips="1" connect="1" arrows="1" fold="1" page="1" pageScale="1" pageWidth="850" pageHeight="1100" math="0" shadow="0">
      <root>
        <mxCell id="0" />
        <mxCell id="1" parent="0" />
        <mxCell id="0lbvmDNEnkcKm_lzGgN5-1" style="edgeStyle=orthogonalEdgeStyle;rounded=0;orthogonalLoop=1;jettySize=auto;html=1;exitX=0;exitY=0.5;exitDx=0;exitDy=0;entryX=1;entryY=0.5;entryDx=0;entryDy=0;" edge="1" parent="1" source="0lbvmDNEnkcKm_lzGgN5-2" target="0lbvmDNEnkcKm_lzGgN5-42">
          <mxGeometry relative="1" as="geometry" />
        </mxCell>
        <mxCell id="0lbvmDNEnkcKm_lzGgN5-2" value="" style="rounded=1;whiteSpace=wrap;html=1;" vertex="1" parent="1">
          <mxGeometry x="740" y="360" width="360" height="305" as="geometry" />
        </mxCell>
        <mxCell id="0lbvmDNEnkcKm_lzGgN5-3" value="" style="shape=internalStorage;whiteSpace=wrap;html=1;backgroundOutline=1;" vertex="1" parent="1">
          <mxGeometry x="150" y="250" width="200" height="150" as="geometry" />
        </mxCell>
        <mxCell id="0lbvmDNEnkcKm_lzGgN5-4" value="&lt;h1 style=&quot;margin-top: 0px;&quot;&gt;FireBim Fire Matrix&lt;/h1&gt;&lt;p&gt;The fire matrix serves multiple purposes within the FireBIM project, making it a crucial reference point for all work packages. Below are some considerations that need to be discussed and agreed upon when developing and populating the fire matrix.&lt;/p&gt;&lt;p&gt;&lt;br&gt;&lt;/p&gt;" style="text;html=1;whiteSpace=wrap;overflow=hidden;rounded=0;" vertex="1" parent="1">
          <mxGeometry x="140" y="100" width="510" height="120" as="geometry" />
        </mxCell>
        <mxCell id="0lbvmDNEnkcKm_lzGgN5-5" value="&lt;h1 style=&quot;margin-top: 0px;&quot;&gt;Fire Matrix Considerations&lt;/h1&gt;&lt;p&gt;&lt;span style=&quot;color: rgb(13, 13, 13); font-family: ui-sans-serif, -apple-system, system-ui, &amp;quot;Segoe UI&amp;quot;, Roboto, Ubuntu, Cantarell, &amp;quot;Noto Sans&amp;quot;, sans-serif, Helvetica, &amp;quot;Apple Color Emoji&amp;quot;, Arial, &amp;quot;Segoe UI Emoji&amp;quot;, &amp;quot;Segoe UI Symbol&amp;quot;; white-space-collapse: preserve; background-color: rgb(255, 255, 255);&quot;&gt;&lt;font style=&quot;font-size: 12px;&quot;&gt;Developing a fire safety building code compliance checker like FireBIM that aims to create a &quot;fire matrix&quot; aligning different national regulations on fire safety is a complex and multifaceted endeavor. Here are some important considerations to keep in mind:&lt;/font&gt;&lt;/span&gt;&lt;br&gt;&lt;/p&gt;" style="text;html=1;whiteSpace=wrap;overflow=hidden;rounded=0;" vertex="1" parent="1">
          <mxGeometry x="130" y="450" width="340" height="110" as="geometry" />
        </mxCell>
        <mxCell id="0lbvmDNEnkcKm_lzGgN5-6" style="edgeStyle=orthogonalEdgeStyle;rounded=0;orthogonalLoop=1;jettySize=auto;html=1;exitX=0;exitY=0.5;exitDx=0;exitDy=0;entryX=0.5;entryY=0;entryDx=0;entryDy=0;" edge="1" parent="1" source="0lbvmDNEnkcKm_lzGgN5-7" target="0lbvmDNEnkcKm_lzGgN5-47">
          <mxGeometry relative="1" as="geometry" />
        </mxCell>
        <mxCell id="0lbvmDNEnkcKm_lzGgN5-7" value="&lt;h3 style=&quot;border: 0px solid rgb(227, 227, 227); box-sizing: border-box; --tw-border-spacing-x: 0; --tw-border-spacing-y: 0; --tw-translate-x: 0; --tw-translate-y: 0; --tw-rotate: 0; --tw-skew-x: 0; --tw-skew-y: 0; --tw-scale-x: 1; --tw-scale-y: 1; --tw-pan-x: ; --tw-pan-y: ; --tw-pinch-zoom: ; --tw-scroll-snap-strictness: proximity; --tw-gradient-from-position: ; --tw-gradient-via-position: ; --tw-gradient-to-position: ; --tw-ordinal: ; --tw-slashed-zero: ; --tw-numeric-figure: ; --tw-numeric-spacing: ; --tw-numeric-fraction: ; --tw-ring-inset: ; --tw-ring-offset-width: 0px; --tw-ring-offset-color: #fff; --tw-ring-color: rgba(69,89,164,.5); --tw-ring-offset-shadow: 0 0 transparent; --tw-ring-shadow: 0 0 transparent; --tw-shadow: 0 0 transparent; --tw-shadow-colored: 0 0 transparent; --tw-blur: ; --tw-brightness: ; --tw-contrast: ; --tw-grayscale: ; --tw-hue-rotate: ; --tw-invert: ; --tw-saturate: ; --tw-sepia: ; --tw-drop-shadow: ; --tw-backdrop-blur: ; --tw-backdrop-brightness: ; --tw-backdrop-contrast: ; --tw-backdrop-grayscale: ; --tw-backdrop-hue-rotate: ; --tw-backdrop-invert: ; --tw-backdrop-opacity: ; --tw-backdrop-saturate: ; --tw-backdrop-sepia: ; --tw-contain-size: ; --tw-contain-layout: ; --tw-contain-paint: ; --tw-contain-style: ; font-size: 1.25em; margin: 1rem 0px 0.5rem; line-height: 1.6; color: rgb(13, 13, 13); font-family: ui-sans-serif, -apple-system, system-ui, &amp;quot;Segoe UI&amp;quot;, Roboto, Ubuntu, Cantarell, &amp;quot;Noto Sans&amp;quot;, sans-serif, Helvetica, &amp;quot;Apple Color Emoji&amp;quot;, Arial, &amp;quot;Segoe UI Emoji&amp;quot;, &amp;quot;Segoe UI Symbol&amp;quot;; white-space-collapse: preserve; background-color: rgb(255, 255, 255);&quot;&gt;Translation and Language Consistency&lt;/h3&gt;" style="rounded=1;whiteSpace=wrap;html=1;align=center;" vertex="1" parent="1">
          <mxGeometry x="1360" y="230" width="250" height="90" as="geometry" />
        </mxCell>
        <mxCell id="0lbvmDNEnkcKm_lzGgN5-8" style="edgeStyle=orthogonalEdgeStyle;rounded=0;orthogonalLoop=1;jettySize=auto;html=1;exitX=0;exitY=0.5;exitDx=0;exitDy=0;entryX=1;entryY=0.5;entryDx=0;entryDy=0;" edge="1" parent="1" source="0lbvmDNEnkcKm_lzGgN5-9" target="0lbvmDNEnkcKm_lzGgN5-7">
          <mxGeometry relative="1" as="geometry" />
        </mxCell>
        <mxCell id="0lbvmDNEnkcKm_lzGgN5-9" value="&lt;blockquote style=&quot;margin: 0 0 0 40px; border: none; padding: 0px;&quot;&gt;&lt;div style=&quot;text-align: left;&quot;&gt;&lt;span style=&quot;background-color: initial; color: var(--tw-prose-bold); border: 0px solid rgb(227, 227, 227); box-sizing: border-box; --tw-border-spacing-x: 0; --tw-border-spacing-y: 0; --tw-translate-x: 0; --tw-translate-y: 0; --tw-rotate: 0; --tw-skew-x: 0; --tw-skew-y: 0; --tw-scale-x: 1; --tw-scale-y: 1; --tw-pan-x: ; --tw-pan-y: ; --tw-pinch-zoom: ; --tw-scroll-snap-strictness: proximity; --tw-gradient-from-position: ; --tw-gradient-via-position: ; --tw-gradient-to-position: ; --tw-ordinal: ; --tw-slashed-zero: ; --tw-numeric-figure: ; --tw-numeric-spacing: ; --tw-numeric-fraction: ; --tw-ring-inset: ; --tw-ring-offset-width: 0px; --tw-ring-offset-color: #fff; --tw-ring-color: rgba(69,89,164,.5); --tw-ring-offset-shadow: 0 0 transparent; --tw-ring-shadow: 0 0 transparent; --tw-shadow: 0 0 transparent; --tw-shadow-colored: 0 0 transparent; --tw-blur: ; --tw-brightness: ; --tw-contrast: ; --tw-grayscale: ; --tw-hue-rotate: ; --tw-invert: ; --tw-saturate: ; --tw-sepia: ; --tw-drop-shadow: ; --tw-backdrop-blur: ; --tw-backdrop-brightness: ; --tw-backdrop-contrast: ; --tw-backdrop-grayscale: ; --tw-backdrop-hue-rotate: ; --tw-backdrop-invert: ; --tw-backdrop-opacity: ; --tw-backdrop-saturate: ; --tw-backdrop-sepia: ; --tw-contain-size: ; --tw-contain-layout: ; --tw-contain-paint: ; --tw-contain-style: ; font-weight: 600; margin-top: 1.25em; margin-bottom: 1.25em;&quot;&gt;Translation Accuracy&lt;/span&gt;&lt;span style=&quot;background-color: initial;&quot;&gt;&amp;nbsp;&lt;/span&gt;&lt;/div&gt;&lt;div style=&quot;text-align: left;&quot;&gt;&lt;span style=&quot;background-color: initial;&quot;&gt;Ensure high-quality translations from each countryâ€™s language to English. This involves technical terminology specific to fire safety, which may not have direct equivalents in other languages.&amp;nbsp;&lt;/span&gt;&lt;span style=&quot;background-color: initial;&quot;&gt;Highlight these differences to ensure all nuances are captured&lt;/span&gt;&lt;/div&gt;&lt;/blockquote&gt;" style="rounded=0;whiteSpace=wrap;html=1;fillColor=#fff2cc;strokeColor=#d6b656;" vertex="1" parent="1">
          <mxGeometry x="1690" y="150" width="420" height="100" as="geometry" />
        </mxCell>
        <mxCell id="0lbvmDNEnkcKm_lzGgN5-10" style="edgeStyle=orthogonalEdgeStyle;rounded=0;orthogonalLoop=1;jettySize=auto;html=1;exitX=1;exitY=0.5;exitDx=0;exitDy=0;entryX=0.5;entryY=1;entryDx=0;entryDy=0;" edge="1" parent="1" source="0lbvmDNEnkcKm_lzGgN5-11" target="0lbvmDNEnkcKm_lzGgN5-92">
          <mxGeometry relative="1" as="geometry" />
        </mxCell>
        <mxCell id="0lbvmDNEnkcKm_lzGgN5-11" value="&lt;blockquote style=&quot;margin: 0 0 0 40px; border: none; padding: 0px;&quot;&gt;&lt;div style=&quot;text-align: left;&quot;&gt;&lt;b&gt;Standardized Terminology&lt;/b&gt;&lt;/div&gt;&lt;div style=&quot;text-align: left;&quot;&gt;Develop a standardized glossary of terms used across all translations to maintain consistency. This glossary should be updated regularly as new terms or regulations emerge.&lt;br&gt;&lt;/div&gt;&lt;/blockquote&gt;" style="rounded=0;whiteSpace=wrap;html=1;fillColor=#dae8fc;strokeColor=#6c8ebf;" vertex="1" parent="1">
          <mxGeometry x="1690" y="370" width="420" height="100" as="geometry" />
        </mxCell>
        <mxCell id="0lbvmDNEnkcKm_lzGgN5-12" style="edgeStyle=orthogonalEdgeStyle;rounded=0;orthogonalLoop=1;jettySize=auto;html=1;exitX=1;exitY=0.5;exitDx=0;exitDy=0;" edge="1" parent="1" source="0lbvmDNEnkcKm_lzGgN5-13">
          <mxGeometry relative="1" as="geometry">
            <mxPoint x="2550" y="250" as="targetPoint" />
          </mxGeometry>
        </mxCell>
        <mxCell id="0lbvmDNEnkcKm_lzGgN5-13" value="&lt;blockquote style=&quot;margin: 0 0 0 40px; border: none; padding: 0px;&quot;&gt;&lt;div style=&quot;text-align: left;&quot;&gt;&lt;span style=&quot;background-color: initial;&quot;&gt;&lt;b&gt;Cultural Context&lt;/b&gt;&lt;/span&gt;&lt;/div&gt;&lt;div style=&quot;text-align: left;&quot;&gt;Be aware of cultural nuances and legal interpretations that might influence the translation of codes and regulations.&amp;nbsp;&lt;span style=&quot;background-color: initial;&quot;&gt;Highlight these differences to ensure all nuances are captured&lt;/span&gt;&lt;/div&gt;&lt;/blockquote&gt;" style="rounded=0;whiteSpace=wrap;html=1;fillColor=#fff2cc;strokeColor=#d6b656;" vertex="1" parent="1">
          <mxGeometry x="1690" y="260" width="420" height="100" as="geometry" />
        </mxCell>
        <mxCell id="0lbvmDNEnkcKm_lzGgN5-14" style="edgeStyle=orthogonalEdgeStyle;rounded=0;orthogonalLoop=1;jettySize=auto;html=1;exitX=0;exitY=0.5;exitDx=0;exitDy=0;entryX=1.004;entryY=0.678;entryDx=0;entryDy=0;entryPerimeter=0;" edge="1" parent="1" source="0lbvmDNEnkcKm_lzGgN5-13" target="0lbvmDNEnkcKm_lzGgN5-7">
          <mxGeometry relative="1" as="geometry">
            <Array as="points">
              <mxPoint x="1690" y="291" />
            </Array>
          </mxGeometry>
        </mxCell>
        <mxCell id="0lbvmDNEnkcKm_lzGgN5-15" style="edgeStyle=orthogonalEdgeStyle;rounded=0;orthogonalLoop=1;jettySize=auto;html=1;exitX=0;exitY=0.5;exitDx=0;exitDy=0;entryX=1.004;entryY=0.867;entryDx=0;entryDy=0;entryPerimeter=0;" edge="1" parent="1" source="0lbvmDNEnkcKm_lzGgN5-11" target="0lbvmDNEnkcKm_lzGgN5-7">
          <mxGeometry relative="1" as="geometry" />
        </mxCell>
        <mxCell id="0lbvmDNEnkcKm_lzGgN5-16" style="edgeStyle=orthogonalEdgeStyle;rounded=0;orthogonalLoop=1;jettySize=auto;html=1;exitX=0;exitY=0.5;exitDx=0;exitDy=0;entryX=1;entryY=0.25;entryDx=0;entryDy=0;" edge="1" parent="1" source="0lbvmDNEnkcKm_lzGgN5-17" target="0lbvmDNEnkcKm_lzGgN5-47">
          <mxGeometry relative="1" as="geometry" />
        </mxCell>
        <mxCell id="0lbvmDNEnkcKm_lzGgN5-17" value="&lt;h3 style=&quot;border: 0px solid rgb(227, 227, 227); box-sizing: border-box; --tw-border-spacing-x: 0; --tw-border-spacing-y: 0; --tw-translate-x: 0; --tw-translate-y: 0; --tw-rotate: 0; --tw-skew-x: 0; --tw-skew-y: 0; --tw-scale-x: 1; --tw-scale-y: 1; --tw-pan-x: ; --tw-pan-y: ; --tw-pinch-zoom: ; --tw-scroll-snap-strictness: proximity; --tw-gradient-from-position: ; --tw-gradient-via-position: ; --tw-gradient-to-position: ; --tw-ordinal: ; --tw-slashed-zero: ; --tw-numeric-figure: ; --tw-numeric-spacing: ; --tw-numeric-fraction: ; --tw-ring-inset: ; --tw-ring-offset-width: 0px; --tw-ring-offset-color: #fff; --tw-ring-color: rgba(69,89,164,.5); --tw-ring-offset-shadow: 0 0 transparent; --tw-ring-shadow: 0 0 transparent; --tw-shadow: 0 0 transparent; --tw-shadow-colored: 0 0 transparent; --tw-blur: ; --tw-brightness: ; --tw-contrast: ; --tw-grayscale: ; --tw-hue-rotate: ; --tw-invert: ; --tw-saturate: ; --tw-sepia: ; --tw-drop-shadow: ; --tw-backdrop-blur: ; --tw-backdrop-brightness: ; --tw-backdrop-contrast: ; --tw-backdrop-grayscale: ; --tw-backdrop-hue-rotate: ; --tw-backdrop-invert: ; --tw-backdrop-opacity: ; --tw-backdrop-saturate: ; --tw-backdrop-sepia: ; --tw-contain-size: ; --tw-contain-layout: ; --tw-contain-paint: ; --tw-contain-style: ; font-size: 1.25em; margin: 1rem 0px 0.5rem; line-height: 1.6; color: rgb(13, 13, 13); font-family: ui-sans-serif, -apple-system, system-ui, &amp;quot;Segoe UI&amp;quot;, Roboto, Ubuntu, Cantarell, &amp;quot;Noto Sans&amp;quot;, sans-serif, Helvetica, &amp;quot;Apple Color Emoji&amp;quot;, Arial, &amp;quot;Segoe UI Emoji&amp;quot;, &amp;quot;Segoe UI Symbol&amp;quot;; text-align: start; white-space-collapse: preserve; background-color: rgb(255, 255, 255);&quot;&gt;Distinguishing Between Codes&lt;/h3&gt;" style="rounded=1;whiteSpace=wrap;html=1;align=center;" vertex="1" parent="1">
          <mxGeometry x="1360" y="590" width="250" height="90" as="geometry" />
        </mxCell>
        <mxCell id="0lbvmDNEnkcKm_lzGgN5-18" style="edgeStyle=orthogonalEdgeStyle;rounded=0;orthogonalLoop=1;jettySize=auto;html=1;exitX=0;exitY=0.5;exitDx=0;exitDy=0;entryX=1;entryY=0.5;entryDx=0;entryDy=0;" edge="1" parent="1" source="0lbvmDNEnkcKm_lzGgN5-19" target="0lbvmDNEnkcKm_lzGgN5-17">
          <mxGeometry relative="1" as="geometry" />
        </mxCell>
        <mxCell id="0lbvmDNEnkcKm_lzGgN5-19" value="&lt;blockquote style=&quot;margin: 0 0 0 40px; border: none; padding: 0px;&quot;&gt;&lt;div style=&quot;text-align: left;&quot;&gt;&lt;span style=&quot;background-color: initial; color: var(--tw-prose-bold); border: 0px solid rgb(227, 227, 227); box-sizing: border-box; --tw-border-spacing-x: 0; --tw-border-spacing-y: 0; --tw-translate-x: 0; --tw-translate-y: 0; --tw-rotate: 0; --tw-skew-x: 0; --tw-skew-y: 0; --tw-scale-x: 1; --tw-scale-y: 1; --tw-pan-x: ; --tw-pan-y: ; --tw-pinch-zoom: ; --tw-scroll-snap-strictness: proximity; --tw-gradient-from-position: ; --tw-gradient-via-position: ; --tw-gradient-to-position: ; --tw-ordinal: ; --tw-slashed-zero: ; --tw-numeric-figure: ; --tw-numeric-spacing: ; --tw-numeric-fraction: ; --tw-ring-inset: ; --tw-ring-offset-width: 0px; --tw-ring-offset-color: #fff; --tw-ring-color: rgba(69,89,164,.5); --tw-ring-offset-shadow: 0 0 transparent; --tw-ring-shadow: 0 0 transparent; --tw-shadow: 0 0 transparent; --tw-shadow-colored: 0 0 transparent; --tw-blur: ; --tw-brightness: ; --tw-contrast: ; --tw-grayscale: ; --tw-hue-rotate: ; --tw-invert: ; --tw-saturate: ; --tw-sepia: ; --tw-drop-shadow: ; --tw-backdrop-blur: ; --tw-backdrop-brightness: ; --tw-backdrop-contrast: ; --tw-backdrop-grayscale: ; --tw-backdrop-hue-rotate: ; --tw-backdrop-invert: ; --tw-backdrop-opacity: ; --tw-backdrop-saturate: ; --tw-backdrop-sepia: ; --tw-contain-size: ; --tw-contain-layout: ; --tw-contain-paint: ; --tw-contain-style: ; font-weight: 600; margin-top: 1.25em; margin-bottom: 1.25em;&quot;&gt;Jurisdictional Differences&lt;/span&gt;&lt;span style=&quot;background-color: initial;&quot;&gt;&amp;nbsp;&lt;/span&gt;&lt;/div&gt;&lt;div style=&quot;text-align: left;&quot;&gt;Identify the jurisdictional scope of each code, as fire safety regulations can vary significantly not only between countries but also within different regions of a single country.&lt;br&gt;&lt;/div&gt;&lt;/blockquote&gt;" style="rounded=0;whiteSpace=wrap;html=1;fillColor=#fff2cc;strokeColor=#d6b656;" vertex="1" parent="1">
          <mxGeometry x="1690" y="510" width="420" height="100" as="geometry" />
        </mxCell>
        <mxCell id="0lbvmDNEnkcKm_lzGgN5-20" value="&lt;blockquote style=&quot;margin: 0 0 0 40px; border: none; padding: 0px;&quot;&gt;&lt;div style=&quot;text-align: left;&quot;&gt;&lt;span style=&quot;background-color: initial;&quot;&gt;&lt;b&gt;Specificity and Detail&lt;/b&gt;&lt;/span&gt;&lt;/div&gt;&lt;div style=&quot;text-align: left;&quot;&gt;Some codes might be more detailed or prescriptive than others. Highlight these differences to ensure all nuances are captured.&lt;br&gt;&lt;/div&gt;&lt;/blockquote&gt;" style="rounded=0;whiteSpace=wrap;html=1;fillColor=#dae8fc;strokeColor=#6c8ebf;" vertex="1" parent="1">
          <mxGeometry x="1690" y="730" width="420" height="100" as="geometry" />
        </mxCell>
        <mxCell id="0lbvmDNEnkcKm_lzGgN5-21" value="&lt;blockquote style=&quot;margin: 0 0 0 40px; border: none; padding: 0px;&quot;&gt;&lt;div style=&quot;text-align: left;&quot;&gt;&lt;span style=&quot;background-color: initial;&quot;&gt;&lt;b&gt;Code Evolution&lt;/b&gt;&lt;/span&gt;&lt;/div&gt;&lt;div style=&quot;text-align: left;&quot;&gt;Track the evolution of codes over time, noting amendments, updates, and historical versions that might still be in effect for existing buildings&lt;br&gt;&lt;/div&gt;&lt;/blockquote&gt;" style="rounded=0;whiteSpace=wrap;html=1;fillColor=#fff2cc;strokeColor=#d6b656;" vertex="1" parent="1">
          <mxGeometry x="1690" y="620" width="420" height="100" as="geometry" />
        </mxCell>
        <mxCell id="0lbvmDNEnkcKm_lzGgN5-22" style="edgeStyle=orthogonalEdgeStyle;rounded=0;orthogonalLoop=1;jettySize=auto;html=1;exitX=0;exitY=0.5;exitDx=0;exitDy=0;entryX=1.004;entryY=0.678;entryDx=0;entryDy=0;entryPerimeter=0;" edge="1" parent="1" source="0lbvmDNEnkcKm_lzGgN5-21" target="0lbvmDNEnkcKm_lzGgN5-17">
          <mxGeometry relative="1" as="geometry">
            <Array as="points">
              <mxPoint x="1690" y="651" />
            </Array>
          </mxGeometry>
        </mxCell>
        <mxCell id="0lbvmDNEnkcKm_lzGgN5-23" style="edgeStyle=orthogonalEdgeStyle;rounded=0;orthogonalLoop=1;jettySize=auto;html=1;exitX=0;exitY=0.5;exitDx=0;exitDy=0;entryX=1.004;entryY=0.867;entryDx=0;entryDy=0;entryPerimeter=0;" edge="1" parent="1" source="0lbvmDNEnkcKm_lzGgN5-20" target="0lbvmDNEnkcKm_lzGgN5-17">
          <mxGeometry relative="1" as="geometry" />
        </mxCell>
        <mxCell id="0lbvmDNEnkcKm_lzGgN5-24" value="DRAFT" style="rounded=0;whiteSpace=wrap;html=1;" vertex="1" parent="1">
          <mxGeometry x="1360" y="60" width="60" height="30" as="geometry" />
        </mxCell>
        <mxCell id="0lbvmDNEnkcKm_lzGgN5-25" value="" style="whiteSpace=wrap;html=1;aspect=fixed;fillColor=#dae8fc;strokeColor=#6c8ebf;" vertex="1" parent="1">
          <mxGeometry x="1360" y="100" width="20" height="20" as="geometry" />
        </mxCell>
        <mxCell id="0lbvmDNEnkcKm_lzGgN5-26" value="" style="whiteSpace=wrap;html=1;aspect=fixed;fillColor=#fff2cc;strokeColor=#d6b656;" vertex="1" parent="1">
          <mxGeometry x="1360" y="145" width="20" height="20" as="geometry" />
        </mxCell>
        <mxCell id="0lbvmDNEnkcKm_lzGgN5-27" value="Clearly defined in the Fire Matrix" style="text;html=1;align=left;verticalAlign=middle;whiteSpace=wrap;rounded=0;" vertex="1" parent="1">
          <mxGeometry x="1385" y="95" width="200" height="30" as="geometry" />
        </mxCell>
        <mxCell id="0lbvmDNEnkcKm_lzGgN5-28" value="Defined in the work going in the to the Fire Matrix, but can not be extracted directly from the matrix" style="text;html=1;align=left;verticalAlign=middle;whiteSpace=wrap;rounded=0;" vertex="1" parent="1">
          <mxGeometry x="1385" y="140" width="200" height="30" as="geometry" />
        </mxCell>
        <mxCell id="0lbvmDNEnkcKm_lzGgN5-29" style="edgeStyle=orthogonalEdgeStyle;rounded=0;orthogonalLoop=1;jettySize=auto;html=1;exitX=0;exitY=0.5;exitDx=0;exitDy=0;entryX=0.5;entryY=0;entryDx=0;entryDy=0;" edge="1" parent="1" source="0lbvmDNEnkcKm_lzGgN5-30" target="0lbvmDNEnkcKm_lzGgN5-31">
          <mxGeometry relative="1" as="geometry" />
        </mxCell>
        <mxCell id="0lbvmDNEnkcKm_lzGgN5-30" value="Fields (columns)" style="rounded=0;whiteSpace=wrap;html=1;" vertex="1" parent="1">
          <mxGeometry x="955" y="415" width="120" height="35" as="geometry" />
        </mxCell>
        <mxCell id="0lbvmDNEnkcKm_lzGgN5-31" value="Name" style="swimlane;whiteSpace=wrap;html=1;" vertex="1" parent="1">
          <mxGeometry x="765" y="405" width="140" height="55" as="geometry">
            <mxRectangle x="650" y="300" width="70" height="30" as="alternateBounds" />
          </mxGeometry>
        </mxCell>
        <mxCell id="0lbvmDNEnkcKm_lzGgN5-32" value="Description" style="text;html=1;align=center;verticalAlign=middle;resizable=0;points=[];autosize=1;strokeColor=none;fillColor=none;" vertex="1" parent="0lbvmDNEnkcKm_lzGgN5-31">
          <mxGeometry x="-5" y="30" width="80" height="30" as="geometry" />
        </mxCell>
        <mxCell id="0lbvmDNEnkcKm_lzGgN5-33" style="edgeStyle=orthogonalEdgeStyle;rounded=0;orthogonalLoop=1;jettySize=auto;html=1;exitX=0;exitY=0.5;exitDx=0;exitDy=0;entryX=0.5;entryY=0;entryDx=0;entryDy=0;" edge="1" parent="1" source="0lbvmDNEnkcKm_lzGgN5-34" target="0lbvmDNEnkcKm_lzGgN5-35">
          <mxGeometry relative="1" as="geometry" />
        </mxCell>
        <mxCell id="0lbvmDNEnkcKm_lzGgN5-34" value="References (tools/sources/&lt;div&gt;classification systems)&lt;/div&gt;" style="rounded=0;whiteSpace=wrap;html=1;" vertex="1" parent="1">
          <mxGeometry x="955" y="470" width="120" height="65" as="geometry" />
        </mxCell>
        <mxCell id="0lbvmDNEnkcKm_lzGgN5-35" value="Name" style="swimlane;whiteSpace=wrap;html=1;" vertex="1" parent="1">
          <mxGeometry x="765" y="492.5" width="140" height="55" as="geometry">
            <mxRectangle x="650" y="300" width="70" height="30" as="alternateBounds" />
          </mxGeometry>
        </mxCell>
        <mxCell id="0lbvmDNEnkcKm_lzGgN5-36" value="Description" style="text;html=1;align=center;verticalAlign=middle;resizable=0;points=[];autosize=1;strokeColor=none;fillColor=none;" vertex="1" parent="0lbvmDNEnkcKm_lzGgN5-35">
          <mxGeometry x="-5" y="30" width="80" height="30" as="geometry" />
        </mxCell>
        <mxCell id="0lbvmDNEnkcKm_lzGgN5-37" style="edgeStyle=orthogonalEdgeStyle;rounded=0;orthogonalLoop=1;jettySize=auto;html=1;exitX=0;exitY=0.5;exitDx=0;exitDy=0;entryX=1;entryY=0.5;entryDx=0;entryDy=0;" edge="1" parent="1" source="0lbvmDNEnkcKm_lzGgN5-38" target="0lbvmDNEnkcKm_lzGgN5-39">
          <mxGeometry relative="1" as="geometry" />
        </mxCell>
        <mxCell id="0lbvmDNEnkcKm_lzGgN5-38" value="?" style="rounded=0;whiteSpace=wrap;html=1;" vertex="1" parent="1">
          <mxGeometry x="955" y="547.5" width="120" height="27.5" as="geometry" />
        </mxCell>
        <mxCell id="0lbvmDNEnkcKm_lzGgN5-39" value="Name" style="swimlane;whiteSpace=wrap;html=1;" vertex="1" parent="1">
          <mxGeometry x="765" y="575" width="140" height="55" as="geometry">
            <mxRectangle x="650" y="300" width="70" height="30" as="alternateBounds" />
          </mxGeometry>
        </mxCell>
        <mxCell id="0lbvmDNEnkcKm_lzGgN5-40" value="Description" style="text;html=1;align=center;verticalAlign=middle;resizable=0;points=[];autosize=1;strokeColor=none;fillColor=none;" vertex="1" parent="0lbvmDNEnkcKm_lzGgN5-39">
          <mxGeometry x="-5" y="30" width="80" height="30" as="geometry" />
        </mxCell>
        <mxCell id="0lbvmDNEnkcKm_lzGgN5-41" style="edgeStyle=orthogonalEdgeStyle;rounded=0;orthogonalLoop=1;jettySize=auto;html=1;exitX=0.5;exitY=0;exitDx=0;exitDy=0;" edge="1" parent="1" source="0lbvmDNEnkcKm_lzGgN5-42" target="0lbvmDNEnkcKm_lzGgN5-44">
          <mxGeometry relative="1" as="geometry" />
        </mxCell>
        <mxCell id="0lbvmDNEnkcKm_lzGgN5-42" value="importance of each part" style="rhombus;whiteSpace=wrap;html=1;" vertex="1" parent="1">
          <mxGeometry x="590" y="465" width="100" height="95" as="geometry" />
        </mxCell>
        <mxCell id="0lbvmDNEnkcKm_lzGgN5-43" style="edgeStyle=orthogonalEdgeStyle;rounded=0;orthogonalLoop=1;jettySize=auto;html=1;exitX=0;exitY=0.5;exitDx=0;exitDy=0;entryX=1;entryY=0.5;entryDx=0;entryDy=0;" edge="1" parent="1" source="0lbvmDNEnkcKm_lzGgN5-44" target="0lbvmDNEnkcKm_lzGgN5-46">
          <mxGeometry relative="1" as="geometry" />
        </mxCell>
        <mxCell id="0lbvmDNEnkcKm_lzGgN5-44" value="Order of each&amp;nbsp;&lt;div&gt;part&lt;/div&gt;" style="rhombus;whiteSpace=wrap;html=1;" vertex="1" parent="1">
          <mxGeometry x="590" y="320" width="100" height="95" as="geometry" />
        </mxCell>
        <mxCell id="0lbvmDNEnkcKm_lzGgN5-45" style="edgeStyle=orthogonalEdgeStyle;rounded=0;orthogonalLoop=1;jettySize=auto;html=1;exitX=0;exitY=0.5;exitDx=0;exitDy=0;" edge="1" parent="1" source="0lbvmDNEnkcKm_lzGgN5-46" target="0lbvmDNEnkcKm_lzGgN5-3">
          <mxGeometry relative="1" as="geometry" />
        </mxCell>
        <mxCell id="0lbvmDNEnkcKm_lzGgN5-46" value="Part required by each country?" style="rhombus;whiteSpace=wrap;html=1;" vertex="1" parent="1">
          <mxGeometry x="470" y="320" width="100" height="95" as="geometry" />
        </mxCell>
        <mxCell id="0lbvmDNEnkcKm_lzGgN5-47" value="" style="rounded=1;whiteSpace=wrap;html=1;" vertex="1" parent="1">
          <mxGeometry x="1140" y="390" width="110" height="200" as="geometry" />
        </mxCell>
        <mxCell id="0lbvmDNEnkcKm_lzGgN5-48" value="Agreement of definition in the matrix" style="rhombus;whiteSpace=wrap;html=1;" vertex="1" parent="1">
          <mxGeometry x="1150" y="450" width="80" height="80" as="geometry" />
        </mxCell>
        <mxCell id="0lbvmDNEnkcKm_lzGgN5-49" style="edgeStyle=orthogonalEdgeStyle;rounded=0;orthogonalLoop=1;jettySize=auto;html=1;exitX=0;exitY=0.5;exitDx=0;exitDy=0;entryX=1;entryY=0.5;entryDx=0;entryDy=0;" edge="1" parent="1" source="0lbvmDNEnkcKm_lzGgN5-50" target="0lbvmDNEnkcKm_lzGgN5-47">
          <mxGeometry relative="1" as="geometry" />
        </mxCell>
        <mxCell id="0lbvmDNEnkcKm_lzGgN5-50" value="&lt;h3 style=&quot;border: 0px solid rgb(227, 227, 227); box-sizing: border-box; --tw-border-spacing-x: 0; --tw-border-spacing-y: 0; --tw-translate-x: 0; --tw-translate-y: 0; --tw-rotate: 0; --tw-skew-x: 0; --tw-skew-y: 0; --tw-scale-x: 1; --tw-scale-y: 1; --tw-pan-x: ; --tw-pan-y: ; --tw-pinch-zoom: ; --tw-scroll-snap-strictness: proximity; --tw-gradient-from-position: ; --tw-gradient-via-position: ; --tw-gradient-to-position: ; --tw-ordinal: ; --tw-slashed-zero: ; --tw-numeric-figure: ; --tw-numeric-spacing: ; --tw-numeric-fraction: ; --tw-ring-inset: ; --tw-ring-offset-width: 0px; --tw-ring-offset-color: #fff; --tw-ring-color: rgba(69,89,164,.5); --tw-ring-offset-shadow: 0 0 transparent; --tw-ring-shadow: 0 0 transparent; --tw-shadow: 0 0 transparent; --tw-shadow-colored: 0 0 transparent; --tw-blur: ; --tw-brightness: ; --tw-contrast: ; --tw-grayscale: ; --tw-hue-rotate: ; --tw-invert: ; --tw-saturate: ; --tw-sepia: ; --tw-drop-shadow: ; --tw-backdrop-blur: ; --tw-backdrop-brightness: ; --tw-backdrop-contrast: ; --tw-backdrop-grayscale: ; --tw-backdrop-hue-rotate: ; --tw-backdrop-invert: ; --tw-backdrop-opacity: ; --tw-backdrop-saturate: ; --tw-backdrop-sepia: ; --tw-contain-size: ; --tw-contain-layout: ; --tw-contain-paint: ; --tw-contain-style: ; font-size: 1.25em; margin: 1rem 0px 0.5rem; line-height: 1.6; color: rgb(13, 13, 13); font-family: ui-sans-serif, -apple-system, system-ui, &amp;quot;Segoe UI&amp;quot;, Roboto, Ubuntu, Cantarell, &amp;quot;Noto Sans&amp;quot;, sans-serif, Helvetica, &amp;quot;Apple Color Emoji&amp;quot;, Arial, &amp;quot;Segoe UI Emoji&amp;quot;, &amp;quot;Segoe UI Symbol&amp;quot;; text-align: start; white-space-collapse: preserve; background-color: rgb(255, 255, 255);&quot;&gt;Classifying Codes&lt;/h3&gt;" style="rounded=1;whiteSpace=wrap;html=1;align=center;" vertex="1" parent="1">
          <mxGeometry x="1370" y="950" width="250" height="90" as="geometry" />
        </mxCell>
        <mxCell id="0lbvmDNEnkcKm_lzGgN5-51" style="edgeStyle=orthogonalEdgeStyle;rounded=0;orthogonalLoop=1;jettySize=auto;html=1;exitX=0;exitY=0.5;exitDx=0;exitDy=0;entryX=1;entryY=0.5;entryDx=0;entryDy=0;" edge="1" parent="1" source="0lbvmDNEnkcKm_lzGgN5-52" target="0lbvmDNEnkcKm_lzGgN5-50">
          <mxGeometry relative="1" as="geometry" />
        </mxCell>
        <mxCell id="0lbvmDNEnkcKm_lzGgN5-52" value="&lt;blockquote style=&quot;margin: 0 0 0 40px; border: none; padding: 0px;&quot;&gt;&lt;div style=&quot;text-align: left;&quot;&gt;&lt;span style=&quot;background-color: initial; color: var(--tw-prose-bold); border: 0px solid rgb(227, 227, 227); box-sizing: border-box; --tw-border-spacing-x: 0; --tw-border-spacing-y: 0; --tw-translate-x: 0; --tw-translate-y: 0; --tw-rotate: 0; --tw-skew-x: 0; --tw-skew-y: 0; --tw-scale-x: 1; --tw-scale-y: 1; --tw-pan-x: ; --tw-pan-y: ; --tw-pinch-zoom: ; --tw-scroll-snap-strictness: proximity; --tw-gradient-from-position: ; --tw-gradient-via-position: ; --tw-gradient-to-position: ; --tw-ordinal: ; --tw-slashed-zero: ; --tw-numeric-figure: ; --tw-numeric-spacing: ; --tw-numeric-fraction: ; --tw-ring-inset: ; --tw-ring-offset-width: 0px; --tw-ring-offset-color: #fff; --tw-ring-color: rgba(69,89,164,.5); --tw-ring-offset-shadow: 0 0 transparent; --tw-ring-shadow: 0 0 transparent; --tw-shadow: 0 0 transparent; --tw-shadow-colored: 0 0 transparent; --tw-blur: ; --tw-brightness: ; --tw-contrast: ; --tw-grayscale: ; --tw-hue-rotate: ; --tw-invert: ; --tw-saturate: ; --tw-sepia: ; --tw-drop-shadow: ; --tw-backdrop-blur: ; --tw-backdrop-brightness: ; --tw-backdrop-contrast: ; --tw-backdrop-grayscale: ; --tw-backdrop-hue-rotate: ; --tw-backdrop-invert: ; --tw-backdrop-opacity: ; --tw-backdrop-saturate: ; --tw-backdrop-sepia: ; --tw-contain-size: ; --tw-contain-layout: ; --tw-contain-paint: ; --tw-contain-style: ; font-weight: 600; margin-top: 1.25em; margin-bottom: 1.25em;&quot;&gt;Code Categories&lt;/span&gt;&lt;span style=&quot;background-color: initial;&quot;&gt;&amp;nbsp;&lt;/span&gt;&lt;/div&gt;&lt;div style=&quot;text-align: left;&quot;&gt;Classify codes into categories such as building materials, fire detection and alarm systems, fire suppression systems, egress and evacuation, and fire resistance of structures&lt;br&gt;&lt;/div&gt;&lt;/blockquote&gt;" style="rounded=0;whiteSpace=wrap;html=1;fillColor=#dae8fc;strokeColor=#6c8ebf;" vertex="1" parent="1">
          <mxGeometry x="1700" y="870" width="420" height="100" as="geometry" />
        </mxCell>
        <mxCell id="0lbvmDNEnkcKm_lzGgN5-53" value="&lt;blockquote style=&quot;margin: 0 0 0 40px; border: none; padding: 0px;&quot;&gt;&lt;div style=&quot;text-align: left;&quot;&gt;&lt;b&gt;Compliance Levels&lt;/b&gt;&lt;br&gt;&lt;/div&gt;&lt;div style=&quot;text-align: left;&quot;&gt;Define levels of compliance (e.g., minimum, enhanced, best practice) to help users understand the degree of adherence required or recommended..&lt;br&gt;&lt;/div&gt;&lt;/blockquote&gt;" style="rounded=0;whiteSpace=wrap;html=1;fillColor=#fff2cc;strokeColor=#d6b656;" vertex="1" parent="1">
          <mxGeometry x="1700" y="1090" width="420" height="100" as="geometry" />
        </mxCell>
        <mxCell id="0lbvmDNEnkcKm_lzGgN5-54" value="&lt;blockquote style=&quot;margin: 0 0 0 40px; border: none; padding: 0px;&quot;&gt;&lt;div style=&quot;text-align: left;&quot;&gt;&lt;b&gt;Hierarchy of Rules&lt;/b&gt;&lt;br&gt;&lt;/div&gt;&lt;div style=&quot;text-align: left;&quot;&gt;Develop a hierarchy for the codes, from overarching principles to specific technical requirements&lt;br&gt;&lt;/div&gt;&lt;/blockquote&gt;" style="rounded=0;whiteSpace=wrap;html=1;fillColor=#fff2cc;strokeColor=#d6b656;" vertex="1" parent="1">
          <mxGeometry x="1700" y="980" width="420" height="100" as="geometry" />
        </mxCell>
        <mxCell id="0lbvmDNEnkcKm_lzGgN5-55" style="edgeStyle=orthogonalEdgeStyle;rounded=0;orthogonalLoop=1;jettySize=auto;html=1;exitX=0;exitY=0.5;exitDx=0;exitDy=0;entryX=1.004;entryY=0.678;entryDx=0;entryDy=0;entryPerimeter=0;" edge="1" parent="1" source="0lbvmDNEnkcKm_lzGgN5-54" target="0lbvmDNEnkcKm_lzGgN5-50">
          <mxGeometry relative="1" as="geometry">
            <Array as="points">
              <mxPoint x="1700" y="1011" />
            </Array>
          </mxGeometry>
        </mxCell>
        <mxCell id="0lbvmDNEnkcKm_lzGgN5-56" style="edgeStyle=orthogonalEdgeStyle;rounded=0;orthogonalLoop=1;jettySize=auto;html=1;exitX=0;exitY=0.5;exitDx=0;exitDy=0;entryX=1.004;entryY=0.867;entryDx=0;entryDy=0;entryPerimeter=0;" edge="1" parent="1" source="0lbvmDNEnkcKm_lzGgN5-53" target="0lbvmDNEnkcKm_lzGgN5-50">
          <mxGeometry relative="1" as="geometry" />
        </mxCell>
        <mxCell id="0lbvmDNEnkcKm_lzGgN5-57" value="&lt;h3 style=&quot;border: 0px solid rgb(227, 227, 227); box-sizing: border-box; --tw-border-spacing-x: 0; --tw-border-spacing-y: 0; --tw-translate-x: 0; --tw-translate-y: 0; --tw-rotate: 0; --tw-skew-x: 0; --tw-skew-y: 0; --tw-scale-x: 1; --tw-scale-y: 1; --tw-pan-x: ; --tw-pan-y: ; --tw-pinch-zoom: ; --tw-scroll-snap-strictness: proximity; --tw-gradient-from-position: ; --tw-gradient-via-position: ; --tw-gradient-to-position: ; --tw-ordinal: ; --tw-slashed-zero: ; --tw-numeric-figure: ; --tw-numeric-spacing: ; --tw-numeric-fraction: ; --tw-ring-inset: ; --tw-ring-offset-width: 0px; --tw-ring-offset-color: #fff; --tw-ring-color: rgba(69,89,164,.5); --tw-ring-offset-shadow: 0 0 transparent; --tw-ring-shadow: 0 0 transparent; --tw-shadow: 0 0 transparent; --tw-shadow-colored: 0 0 transparent; --tw-blur: ; --tw-brightness: ; --tw-contrast: ; --tw-grayscale: ; --tw-hue-rotate: ; --tw-invert: ; --tw-saturate: ; --tw-sepia: ; --tw-drop-shadow: ; --tw-backdrop-blur: ; --tw-backdrop-brightness: ; --tw-backdrop-contrast: ; --tw-backdrop-grayscale: ; --tw-backdrop-hue-rotate: ; --tw-backdrop-invert: ; --tw-backdrop-opacity: ; --tw-backdrop-saturate: ; --tw-backdrop-sepia: ; --tw-contain-size: ; --tw-contain-layout: ; --tw-contain-paint: ; --tw-contain-style: ; font-size: 1.25em; margin: 1rem 0px 0.5rem; line-height: 1.6; color: rgb(13, 13, 13); font-family: ui-sans-serif, -apple-system, system-ui, &amp;quot;Segoe UI&amp;quot;, Roboto, Ubuntu, Cantarell, &amp;quot;Noto Sans&amp;quot;, sans-serif, Helvetica, &amp;quot;Apple Color Emoji&amp;quot;, Arial, &amp;quot;Segoe UI Emoji&amp;quot;, &amp;quot;Segoe UI Symbol&amp;quot;; text-align: start; white-space-collapse: preserve; background-color: rgb(255, 255, 255);&quot;&gt;Classifying Rules&lt;/h3&gt;" style="rounded=1;whiteSpace=wrap;html=1;align=center;" vertex="1" parent="1">
          <mxGeometry x="1370" y="1310" width="250" height="90" as="geometry" />
        </mxCell>
        <mxCell id="0lbvmDNEnkcKm_lzGgN5-58" style="edgeStyle=orthogonalEdgeStyle;rounded=0;orthogonalLoop=1;jettySize=auto;html=1;exitX=0;exitY=0.5;exitDx=0;exitDy=0;entryX=1;entryY=0.5;entryDx=0;entryDy=0;" edge="1" parent="1" source="0lbvmDNEnkcKm_lzGgN5-59" target="0lbvmDNEnkcKm_lzGgN5-57">
          <mxGeometry relative="1" as="geometry" />
        </mxCell>
        <mxCell id="0lbvmDNEnkcKm_lzGgN5-59" value="&lt;blockquote style=&quot;margin: 0 0 0 40px; border: none; padding: 0px;&quot;&gt;&lt;div style=&quot;text-align: left;&quot;&gt;&lt;span style=&quot;background-color: initial; color: var(--tw-prose-bold); border: 0px solid rgb(227, 227, 227); box-sizing: border-box; --tw-border-spacing-x: 0; --tw-border-spacing-y: 0; --tw-translate-x: 0; --tw-translate-y: 0; --tw-rotate: 0; --tw-skew-x: 0; --tw-skew-y: 0; --tw-scale-x: 1; --tw-scale-y: 1; --tw-pan-x: ; --tw-pan-y: ; --tw-pinch-zoom: ; --tw-scroll-snap-strictness: proximity; --tw-gradient-from-position: ; --tw-gradient-via-position: ; --tw-gradient-to-position: ; --tw-ordinal: ; --tw-slashed-zero: ; --tw-numeric-figure: ; --tw-numeric-spacing: ; --tw-numeric-fraction: ; --tw-ring-inset: ; --tw-ring-offset-width: 0px; --tw-ring-offset-color: #fff; --tw-ring-color: rgba(69,89,164,.5); --tw-ring-offset-shadow: 0 0 transparent; --tw-ring-shadow: 0 0 transparent; --tw-shadow: 0 0 transparent; --tw-shadow-colored: 0 0 transparent; --tw-blur: ; --tw-brightness: ; --tw-contrast: ; --tw-grayscale: ; --tw-hue-rotate: ; --tw-invert: ; --tw-saturate: ; --tw-sepia: ; --tw-drop-shadow: ; --tw-backdrop-blur: ; --tw-backdrop-brightness: ; --tw-backdrop-contrast: ; --tw-backdrop-grayscale: ; --tw-backdrop-hue-rotate: ; --tw-backdrop-invert: ; --tw-backdrop-opacity: ; --tw-backdrop-saturate: ; --tw-backdrop-sepia: ; --tw-contain-size: ; --tw-contain-layout: ; --tw-contain-paint: ; --tw-contain-style: ; font-weight: 600; margin-top: 1.25em; margin-bottom: 1.25em;&quot;&gt;Rule Types&lt;/span&gt;&lt;span style=&quot;background-color: initial;&quot;&gt;&amp;nbsp;&lt;/span&gt;&lt;/div&gt;&lt;div style=&quot;text-align: left;&quot;&gt;Rule type classification system applied to each rule possibly multiple systems and classifications&lt;/div&gt;&lt;/blockquote&gt;" style="rounded=0;whiteSpace=wrap;html=1;fillColor=#dae8fc;strokeColor=#6c8ebf;" vertex="1" parent="1">
          <mxGeometry x="1700" y="1230" width="420" height="100" as="geometry" />
        </mxCell>
        <mxCell id="0lbvmDNEnkcKm_lzGgN5-60" value="&lt;blockquote style=&quot;margin: 0 0 0 40px; border: none; padding: 0px;&quot;&gt;&lt;div style=&quot;text-align: left;&quot;&gt;&lt;b&gt;Applicability&lt;/b&gt;&lt;br&gt;&lt;/div&gt;&lt;div style=&quot;text-align: left;&quot;&gt;Determine the applicability of rules to different building types, uses, and occupancies (e.g., residential, commercial, industrial, sub catagories hereoff)&lt;br&gt;&lt;/div&gt;&lt;/blockquote&gt;" style="rounded=0;whiteSpace=wrap;html=1;fillColor=#fff2cc;strokeColor=#d6b656;" vertex="1" parent="1">
          <mxGeometry x="1700" y="1450" width="420" height="100" as="geometry" />
        </mxCell>
        <mxCell id="0lbvmDNEnkcKm_lzGgN5-61" value="&lt;blockquote style=&quot;margin: 0 0 0 40px; border: none; padding: 0px;&quot;&gt;&lt;div style=&quot;text-align: left;&quot;&gt;&lt;b&gt;Risk Assessment&lt;/b&gt;&lt;br&gt;&lt;/div&gt;&lt;div style=&quot;text-align: left;&quot;&gt;Incorporate risk assessment methodologies to prioritize rules based on the level of risk they mitigate.&lt;br&gt;&lt;/div&gt;&lt;/blockquote&gt;" style="rounded=0;whiteSpace=wrap;html=1;fillColor=#fff2cc;strokeColor=#d6b656;" vertex="1" parent="1">
          <mxGeometry x="1700" y="1340" width="420" height="100" as="geometry" />
        </mxCell>
        <mxCell id="0lbvmDNEnkcKm_lzGgN5-62" style="edgeStyle=orthogonalEdgeStyle;rounded=0;orthogonalLoop=1;jettySize=auto;html=1;exitX=0;exitY=0.5;exitDx=0;exitDy=0;entryX=1.004;entryY=0.678;entryDx=0;entryDy=0;entryPerimeter=0;" edge="1" parent="1" source="0lbvmDNEnkcKm_lzGgN5-61" target="0lbvmDNEnkcKm_lzGgN5-57">
          <mxGeometry relative="1" as="geometry">
            <Array as="points">
              <mxPoint x="1700" y="1371" />
            </Array>
          </mxGeometry>
        </mxCell>
        <mxCell id="0lbvmDNEnkcKm_lzGgN5-63" style="edgeStyle=orthogonalEdgeStyle;rounded=0;orthogonalLoop=1;jettySize=auto;html=1;exitX=0;exitY=0.5;exitDx=0;exitDy=0;entryX=1.004;entryY=0.867;entryDx=0;entryDy=0;entryPerimeter=0;" edge="1" parent="1" source="0lbvmDNEnkcKm_lzGgN5-60" target="0lbvmDNEnkcKm_lzGgN5-57">
          <mxGeometry relative="1" as="geometry" />
        </mxCell>
        <mxCell id="0lbvmDNEnkcKm_lzGgN5-64" style="edgeStyle=orthogonalEdgeStyle;rounded=0;orthogonalLoop=1;jettySize=auto;html=1;exitX=0;exitY=0.5;exitDx=0;exitDy=0;entryX=1;entryY=0.5;entryDx=0;entryDy=0;" edge="1" parent="1" source="0lbvmDNEnkcKm_lzGgN5-65" target="0lbvmDNEnkcKm_lzGgN5-68">
          <mxGeometry relative="1" as="geometry" />
        </mxCell>
        <mxCell id="0lbvmDNEnkcKm_lzGgN5-65" value="&lt;blockquote style=&quot;margin: 0 0 0 40px; border: none; padding: 0px;&quot;&gt;&lt;div style=&quot;text-align: left;&quot;&gt;&lt;span style=&quot;background-color: initial; color: var(--tw-prose-bold); border: 0px solid rgb(227, 227, 227); box-sizing: border-box; --tw-border-spacing-x: 0; --tw-border-spacing-y: 0; --tw-translate-x: 0; --tw-translate-y: 0; --tw-rotate: 0; --tw-skew-x: 0; --tw-skew-y: 0; --tw-scale-x: 1; --tw-scale-y: 1; --tw-pan-x: ; --tw-pan-y: ; --tw-pinch-zoom: ; --tw-scroll-snap-strictness: proximity; --tw-gradient-from-position: ; --tw-gradient-via-position: ; --tw-gradient-to-position: ; --tw-ordinal: ; --tw-slashed-zero: ; --tw-numeric-figure: ; --tw-numeric-spacing: ; --tw-numeric-fraction: ; --tw-ring-inset: ; --tw-ring-offset-width: 0px; --tw-ring-offset-color: #fff; --tw-ring-color: rgba(69,89,164,.5); --tw-ring-offset-shadow: 0 0 transparent; --tw-ring-shadow: 0 0 transparent; --tw-shadow: 0 0 transparent; --tw-shadow-colored: 0 0 transparent; --tw-blur: ; --tw-brightness: ; --tw-contrast: ; --tw-grayscale: ; --tw-hue-rotate: ; --tw-invert: ; --tw-saturate: ; --tw-sepia: ; --tw-drop-shadow: ; --tw-backdrop-blur: ; --tw-backdrop-brightness: ; --tw-backdrop-contrast: ; --tw-backdrop-grayscale: ; --tw-backdrop-hue-rotate: ; --tw-backdrop-invert: ; --tw-backdrop-opacity: ; --tw-backdrop-saturate: ; --tw-backdrop-sepia: ; --tw-contain-size: ; --tw-contain-layout: ; --tw-contain-paint: ; --tw-contain-style: ; font-weight: 600; margin-top: 1.25em; margin-bottom: 1.25em;&quot;&gt;Rule Type classification system considerations&lt;/span&gt;&lt;/div&gt;&lt;div style=&quot;text-align: left;&quot;&gt;&lt;br&gt;&lt;/div&gt;&lt;div style=&quot;text-align: left;&quot;&gt;&lt;ul&gt;&lt;li&gt;Classify rules based on their typeâ€”whether they are prescriptive (specific requirements), performance-based (outcome-focused), or a combination of both.&lt;/li&gt;&lt;li&gt;Geometrical: Tag rules that involve spatial or geometrical constraints.&lt;/li&gt;&lt;ul&gt;&lt;li&gt;Model-Based Checks: Use BIM models to automatically check these geometric requirements against the specified rules&lt;/li&gt;&lt;li&gt;Spatial Requirements: Rules that specify spatial dimensions or configurations, such as the width of escape routes, the placement of fire exits, or the height of fire-rated walls.&lt;br&gt;&lt;/li&gt;&lt;/ul&gt;&lt;li&gt;Simple: Tag rules that can be evaluated with basic logical conditions.&lt;/li&gt;&lt;ul&gt;&lt;li&gt;Thresholds: Rules that require checking if a value is larger or smaller than a specified threshold (e.g., fire resistance ratings must be greater than 2 hours).&lt;/li&gt;&lt;li&gt;Binary Conditions: Rules that involve yes/no conditions (e.g., presence of smoke detectors in every room).&lt;/li&gt;&lt;/ul&gt;&lt;li&gt;Enumerated: Tag rules that involve choosing from a set list of options.&lt;/li&gt;&lt;ul&gt;&lt;li&gt;Categorical Requirements: Rules that specify particular categories or options (e.g., types of fire suppression systems that are permitted).&lt;/li&gt;&lt;li&gt;List Checks: Compliance checks that involve verifying if the item belongs to a specific list of acceptable options&lt;/li&gt;&lt;/ul&gt;&lt;li&gt;?&lt;/li&gt;&lt;/ul&gt;&lt;/div&gt;&lt;/blockquote&gt;" style="rounded=0;whiteSpace=wrap;html=1;fillColor=#fff2cc;strokeColor=#d6b656;" vertex="1" parent="1">
          <mxGeometry x="2570" y="1150" width="420" height="550" as="geometry" />
        </mxCell>
        <mxCell id="0lbvmDNEnkcKm_lzGgN5-66" value="Use of specific ontologies? Perhaps tag rules that require understanding of hierarchical and relational knowledge.&lt;br&gt;&lt;ul style=&quot;forced-color-adjust: none; color: rgb(0, 0, 0); font-family: Helvetica; font-size: 12px; font-style: normal; font-variant-ligatures: normal; font-variant-caps: normal; font-weight: 400; letter-spacing: normal; orphans: 2; text-align: left; text-indent: 0px; text-transform: none; widows: 2; word-spacing: 0px; -webkit-text-stroke-width: 0px; white-space: normal; text-decoration-thickness: initial; text-decoration-style: initial; text-decoration-color: initial;&quot;&gt;&lt;li&gt;Knowledge Representation: Use ontologies to represent the relationships and hierarchies in fire safety knowledge.&lt;br&gt;&lt;/li&gt;&lt;li&gt;Inference Engines: Implement inference engines to reason about the rules based on their ontological properties&lt;br&gt;&lt;/li&gt;&lt;li&gt;IDS compatible&lt;/li&gt;&lt;li&gt;SHQL implementable&lt;/li&gt;&lt;li&gt;IfcOpenShell computable&lt;/li&gt;&lt;li&gt;other technology required&lt;/li&gt;&lt;li&gt;ambiguity classification?&lt;/li&gt;&lt;li&gt;&quot;expert evaluation needed&quot;-tag&lt;/li&gt;&lt;li&gt;rule associations&lt;/li&gt;&lt;li&gt;?&lt;/li&gt;&lt;/ul&gt;" style="text;whiteSpace=wrap;html=1;fillColor=#fff2cc;strokeColor=#d6b656;" vertex="1" parent="1">
          <mxGeometry x="3010" y="1210" width="330" height="280" as="geometry" />
        </mxCell>
        <mxCell id="0lbvmDNEnkcKm_lzGgN5-67" style="edgeStyle=orthogonalEdgeStyle;rounded=0;orthogonalLoop=1;jettySize=auto;html=1;exitX=0;exitY=0.5;exitDx=0;exitDy=0;entryX=1;entryY=0.5;entryDx=0;entryDy=0;" edge="1" parent="1" source="0lbvmDNEnkcKm_lzGgN5-68" target="0lbvmDNEnkcKm_lzGgN5-59">
          <mxGeometry relative="1" as="geometry" />
        </mxCell>
        <mxCell id="0lbvmDNEnkcKm_lzGgN5-68" value="Decision of a system of rule classifiaction" style="rhombus;whiteSpace=wrap;html=1;" vertex="1" parent="1">
          <mxGeometry x="2270" y="1220" width="190" height="175" as="geometry" />
        </mxCell>
        <mxCell id="0lbvmDNEnkcKm_lzGgN5-69" value="Other considerations classifying the types of rules" style="text;html=1;align=left;verticalAlign=middle;whiteSpace=wrap;rounded=0;fontStyle=1;fillColor=#fff2cc;strokeColor=#d6b656;" vertex="1" parent="1">
          <mxGeometry x="3010" y="1150" width="180" height="30" as="geometry" />
        </mxCell>
        <mxCell id="0lbvmDNEnkcKm_lzGgN5-70" style="edgeStyle=orthogonalEdgeStyle;rounded=0;orthogonalLoop=1;jettySize=auto;html=1;exitX=0;exitY=0.5;exitDx=0;exitDy=0;entryX=1;entryY=0.65;entryDx=0;entryDy=0;entryPerimeter=0;" edge="1" parent="1" source="0lbvmDNEnkcKm_lzGgN5-57" target="0lbvmDNEnkcKm_lzGgN5-47">
          <mxGeometry relative="1" as="geometry" />
        </mxCell>
        <mxCell id="0lbvmDNEnkcKm_lzGgN5-71" style="edgeStyle=orthogonalEdgeStyle;rounded=0;orthogonalLoop=1;jettySize=auto;html=1;exitX=0;exitY=0.5;exitDx=0;exitDy=0;entryX=1;entryY=0.75;entryDx=0;entryDy=0;" edge="1" parent="1" source="0lbvmDNEnkcKm_lzGgN5-72" target="0lbvmDNEnkcKm_lzGgN5-47">
          <mxGeometry relative="1" as="geometry" />
        </mxCell>
        <mxCell id="0lbvmDNEnkcKm_lzGgN5-72" value="&lt;h3 style=&quot;border: 0px solid rgb(227, 227, 227); box-sizing: border-box; --tw-border-spacing-x: 0; --tw-border-spacing-y: 0; --tw-translate-x: 0; --tw-translate-y: 0; --tw-rotate: 0; --tw-skew-x: 0; --tw-skew-y: 0; --tw-scale-x: 1; --tw-scale-y: 1; --tw-pan-x: ; --tw-pan-y: ; --tw-pinch-zoom: ; --tw-scroll-snap-strictness: proximity; --tw-gradient-from-position: ; --tw-gradient-via-position: ; --tw-gradient-to-position: ; --tw-ordinal: ; --tw-slashed-zero: ; --tw-numeric-figure: ; --tw-numeric-spacing: ; --tw-numeric-fraction: ; --tw-ring-inset: ; --tw-ring-offset-width: 0px; --tw-ring-offset-color: #fff; --tw-ring-color: rgba(69,89,164,.5); --tw-ring-offset-shadow: 0 0 transparent; --tw-ring-shadow: 0 0 transparent; --tw-shadow: 0 0 transparent; --tw-shadow-colored: 0 0 transparent; --tw-blur: ; --tw-brightness: ; --tw-contrast: ; --tw-grayscale: ; --tw-hue-rotate: ; --tw-invert: ; --tw-saturate: ; --tw-sepia: ; --tw-drop-shadow: ; --tw-backdrop-blur: ; --tw-backdrop-brightness: ; --tw-backdrop-contrast: ; --tw-backdrop-grayscale: ; --tw-backdrop-hue-rotate: ; --tw-backdrop-invert: ; --tw-backdrop-opacity: ; --tw-backdrop-saturate: ; --tw-backdrop-sepia: ; --tw-contain-size: ; --tw-contain-layout: ; --tw-contain-paint: ; --tw-contain-style: ; font-size: 1.25em; margin: 1rem 0px 0.5rem; line-height: 1.6; color: rgb(13, 13, 13); font-family: ui-sans-serif, -apple-system, system-ui, &amp;quot;Segoe UI&amp;quot;, Roboto, Ubuntu, Cantarell, &amp;quot;Noto Sans&amp;quot;, sans-serif, Helvetica, &amp;quot;Apple Color Emoji&amp;quot;, Arial, &amp;quot;Segoe UI Emoji&amp;quot;, &amp;quot;Segoe UI Symbol&amp;quot;; text-align: start; white-space-collapse: preserve; background-color: rgb(255, 255, 255);&quot;&gt;&lt;span style=&quot;border: 0px solid rgb(227, 227, 227); box-sizing: border-box; --tw-border-spacing-x: 0; --tw-border-spacing-y: 0; --tw-translate-x: 0; --tw-translate-y: 0; --tw-rotate: 0; --tw-skew-x: 0; --tw-skew-y: 0; --tw-scale-x: 1; --tw-scale-y: 1; --tw-pan-x: ; --tw-pan-y: ; --tw-pinch-zoom: ; --tw-scroll-snap-strictness: proximity; --tw-gradient-from-position: ; --tw-gradient-via-position: ; --tw-gradient-to-position: ; --tw-ordinal: ; --tw-slashed-zero: ; --tw-numeric-figure: ; --tw-numeric-spacing: ; --tw-numeric-fraction: ; --tw-ring-inset: ; --tw-ring-offset-width: 0px; --tw-ring-offset-color: #fff; --tw-ring-color: rgba(69,89,164,.5); --tw-ring-offset-shadow: 0 0 transparent; --tw-ring-shadow: 0 0 transparent; --tw-shadow: 0 0 transparent; --tw-shadow-colored: 0 0 transparent; --tw-blur: ; --tw-brightness: ; --tw-contrast: ; --tw-grayscale: ; --tw-hue-rotate: ; --tw-invert: ; --tw-saturate: ; --tw-sepia: ; --tw-drop-shadow: ; --tw-backdrop-blur: ; --tw-backdrop-brightness: ; --tw-backdrop-contrast: ; --tw-backdrop-grayscale: ; --tw-backdrop-hue-rotate: ; --tw-backdrop-invert: ; --tw-backdrop-opacity: ; --tw-backdrop-saturate: ; --tw-backdrop-sepia: ; --tw-contain-size: ; --tw-contain-layout: ; --tw-contain-paint: ; --tw-contain-style: ; color: inherit;&quot;&gt;Validation and Review&lt;/span&gt;&lt;/h3&gt;" style="rounded=1;whiteSpace=wrap;html=1;align=center;" vertex="1" parent="1">
          <mxGeometry x="1370" y="1670" width="250" height="90" as="geometry" />
        </mxCell>
        <mxCell id="0lbvmDNEnkcKm_lzGgN5-73" style="edgeStyle=orthogonalEdgeStyle;rounded=0;orthogonalLoop=1;jettySize=auto;html=1;exitX=0;exitY=0.5;exitDx=0;exitDy=0;entryX=1;entryY=0.5;entryDx=0;entryDy=0;" edge="1" parent="1" source="0lbvmDNEnkcKm_lzGgN5-74" target="0lbvmDNEnkcKm_lzGgN5-72">
          <mxGeometry relative="1" as="geometry" />
        </mxCell>
        <mxCell id="0lbvmDNEnkcKm_lzGgN5-74" value="&lt;blockquote style=&quot;margin: 0 0 0 40px; border: none; padding: 0px;&quot;&gt;&lt;div style=&quot;text-align: left;&quot;&gt;&lt;span style=&quot;background-color: initial; color: var(--tw-prose-bold); border: 0px solid rgb(227, 227, 227); box-sizing: border-box; --tw-border-spacing-x: 0; --tw-border-spacing-y: 0; --tw-translate-x: 0; --tw-translate-y: 0; --tw-rotate: 0; --tw-skew-x: 0; --tw-skew-y: 0; --tw-scale-x: 1; --tw-scale-y: 1; --tw-pan-x: ; --tw-pan-y: ; --tw-pinch-zoom: ; --tw-scroll-snap-strictness: proximity; --tw-gradient-from-position: ; --tw-gradient-via-position: ; --tw-gradient-to-position: ; --tw-ordinal: ; --tw-slashed-zero: ; --tw-numeric-figure: ; --tw-numeric-spacing: ; --tw-numeric-fraction: ; --tw-ring-inset: ; --tw-ring-offset-width: 0px; --tw-ring-offset-color: #fff; --tw-ring-color: rgba(69,89,164,.5); --tw-ring-offset-shadow: 0 0 transparent; --tw-ring-shadow: 0 0 transparent; --tw-shadow: 0 0 transparent; --tw-shadow-colored: 0 0 transparent; --tw-blur: ; --tw-brightness: ; --tw-contrast: ; --tw-grayscale: ; --tw-hue-rotate: ; --tw-invert: ; --tw-saturate: ; --tw-sepia: ; --tw-drop-shadow: ; --tw-backdrop-blur: ; --tw-backdrop-brightness: ; --tw-backdrop-contrast: ; --tw-backdrop-grayscale: ; --tw-backdrop-hue-rotate: ; --tw-backdrop-invert: ; --tw-backdrop-opacity: ; --tw-backdrop-saturate: ; --tw-backdrop-sepia: ; --tw-contain-size: ; --tw-contain-layout: ; --tw-contain-paint: ; --tw-contain-style: ; font-weight: 600; margin-top: 1.25em; margin-bottom: 1.25em;&quot;&gt;?&lt;/span&gt;&lt;span style=&quot;background-color: initial;&quot;&gt;&amp;nbsp;&lt;/span&gt;&lt;/div&gt;&lt;div style=&quot;text-align: left;&quot;&gt;?&lt;/div&gt;&lt;/blockquote&gt;" style="rounded=0;whiteSpace=wrap;html=1;fillColor=#dae8fc;strokeColor=#6c8ebf;" vertex="1" parent="1">
          <mxGeometry x="1700" y="1590" width="420" height="100" as="geometry" />
        </mxCell>
        <mxCell id="0lbvmDNEnkcKm_lzGgN5-75" value="&lt;blockquote style=&quot;margin: 0 0 0 40px; border: none; padding: 0px;&quot;&gt;&lt;div style=&quot;text-align: left;&quot;&gt;&lt;span style=&quot;background-color: initial;&quot;&gt;&lt;b&gt;?&lt;/b&gt;&lt;/span&gt;&lt;/div&gt;&lt;div style=&quot;text-align: left;&quot;&gt;&lt;span style=&quot;background-color: initial;&quot;&gt;?&lt;/span&gt;&lt;br&gt;&lt;/div&gt;&lt;/blockquote&gt;" style="rounded=0;whiteSpace=wrap;html=1;fillColor=#dae8fc;strokeColor=#6c8ebf;" vertex="1" parent="1">
          <mxGeometry x="1700" y="1810" width="420" height="100" as="geometry" />
        </mxCell>
        <mxCell id="0lbvmDNEnkcKm_lzGgN5-76" value="&lt;blockquote style=&quot;margin: 0 0 0 40px; border: none; padding: 0px;&quot;&gt;&lt;div style=&quot;text-align: left;&quot;&gt;&lt;b&gt;?&lt;/b&gt;&lt;/div&gt;&lt;div style=&quot;text-align: left;&quot;&gt;?&lt;br&gt;&lt;/div&gt;&lt;/blockquote&gt;" style="rounded=0;whiteSpace=wrap;html=1;fillColor=#fff2cc;strokeColor=#d6b656;" vertex="1" parent="1">
          <mxGeometry x="1700" y="1700" width="420" height="100" as="geometry" />
        </mxCell>
        <mxCell id="0lbvmDNEnkcKm_lzGgN5-77" style="edgeStyle=orthogonalEdgeStyle;rounded=0;orthogonalLoop=1;jettySize=auto;html=1;exitX=0;exitY=0.5;exitDx=0;exitDy=0;entryX=1.004;entryY=0.678;entryDx=0;entryDy=0;entryPerimeter=0;" edge="1" parent="1" source="0lbvmDNEnkcKm_lzGgN5-76" target="0lbvmDNEnkcKm_lzGgN5-72">
          <mxGeometry relative="1" as="geometry">
            <Array as="points">
              <mxPoint x="1700" y="1731" />
            </Array>
          </mxGeometry>
        </mxCell>
        <mxCell id="0lbvmDNEnkcKm_lzGgN5-78" style="edgeStyle=orthogonalEdgeStyle;rounded=0;orthogonalLoop=1;jettySize=auto;html=1;exitX=0;exitY=0.5;exitDx=0;exitDy=0;entryX=1.004;entryY=0.867;entryDx=0;entryDy=0;entryPerimeter=0;" edge="1" parent="1" source="0lbvmDNEnkcKm_lzGgN5-75" target="0lbvmDNEnkcKm_lzGgN5-72">
          <mxGeometry relative="1" as="geometry" />
        </mxCell>
        <mxCell id="0lbvmDNEnkcKm_lzGgN5-79" style="edgeStyle=orthogonalEdgeStyle;rounded=0;orthogonalLoop=1;jettySize=auto;html=1;entryX=1;entryY=0.426;entryDx=0;entryDy=0;entryPerimeter=0;" edge="1" parent="1" source="0lbvmDNEnkcKm_lzGgN5-47" target="0lbvmDNEnkcKm_lzGgN5-2">
          <mxGeometry relative="1" as="geometry" />
        </mxCell>
        <mxCell id="0lbvmDNEnkcKm_lzGgN5-80" value="WP2" style="text;html=1;align=center;verticalAlign=middle;whiteSpace=wrap;rounded=0;" vertex="1" parent="1">
          <mxGeometry x="1350" y="320" width="60" height="30" as="geometry" />
        </mxCell>
        <mxCell id="0lbvmDNEnkcKm_lzGgN5-81" value="WP2" style="text;html=1;align=center;verticalAlign=middle;whiteSpace=wrap;rounded=0;" vertex="1" parent="1">
          <mxGeometry x="1350" y="680" width="60" height="30" as="geometry" />
        </mxCell>
        <mxCell id="0lbvmDNEnkcKm_lzGgN5-82" value="WP2" style="text;html=1;align=center;verticalAlign=middle;whiteSpace=wrap;rounded=0;" vertex="1" parent="1">
          <mxGeometry x="1360" y="1040" width="60" height="30" as="geometry" />
        </mxCell>
        <mxCell id="0lbvmDNEnkcKm_lzGgN5-83" value="WP3" style="text;html=1;align=center;verticalAlign=middle;whiteSpace=wrap;rounded=0;" vertex="1" parent="1">
          <mxGeometry x="1400" y="1040" width="60" height="30" as="geometry" />
        </mxCell>
        <mxCell id="0lbvmDNEnkcKm_lzGgN5-84" value="WP4" style="text;html=1;align=center;verticalAlign=middle;whiteSpace=wrap;rounded=0;" vertex="1" parent="1">
          <mxGeometry x="1440" y="1040" width="60" height="30" as="geometry" />
        </mxCell>
        <mxCell id="0lbvmDNEnkcKm_lzGgN5-85" value="WP2" style="text;html=1;align=center;verticalAlign=middle;whiteSpace=wrap;rounded=0;" vertex="1" parent="1">
          <mxGeometry x="1360" y="1400" width="60" height="30" as="geometry" />
        </mxCell>
        <mxCell id="0lbvmDNEnkcKm_lzGgN5-86" value="WP3" style="text;html=1;align=center;verticalAlign=middle;whiteSpace=wrap;rounded=0;" vertex="1" parent="1">
          <mxGeometry x="1400" y="1400" width="60" height="30" as="geometry" />
        </mxCell>
        <mxCell id="0lbvmDNEnkcKm_lzGgN5-87" value="WP4" style="text;html=1;align=center;verticalAlign=middle;whiteSpace=wrap;rounded=0;" vertex="1" parent="1">
          <mxGeometry x="1440" y="1400" width="60" height="30" as="geometry" />
        </mxCell>
        <mxCell id="0lbvmDNEnkcKm_lzGgN5-88" value="WP2" style="text;html=1;align=center;verticalAlign=middle;whiteSpace=wrap;rounded=0;" vertex="1" parent="1">
          <mxGeometry x="1360" y="1760" width="60" height="30" as="geometry" />
        </mxCell>
        <mxCell id="0lbvmDNEnkcKm_lzGgN5-89" value="WP3" style="text;html=1;align=center;verticalAlign=middle;whiteSpace=wrap;rounded=0;" vertex="1" parent="1">
          <mxGeometry x="1400" y="1760" width="60" height="30" as="geometry" />
        </mxCell>
        <mxCell id="0lbvmDNEnkcKm_lzGgN5-90" value="WP4" style="text;html=1;align=center;verticalAlign=middle;whiteSpace=wrap;rounded=0;" vertex="1" parent="1">
          <mxGeometry x="1440" y="1760" width="60" height="30" as="geometry" />
        </mxCell>
        <mxCell id="0lbvmDNEnkcKm_lzGgN5-91" style="edgeStyle=orthogonalEdgeStyle;rounded=0;orthogonalLoop=1;jettySize=auto;html=1;exitX=0;exitY=0.5;exitDx=0;exitDy=0;" edge="1" parent="1" source="0lbvmDNEnkcKm_lzGgN5-92" target="0lbvmDNEnkcKm_lzGgN5-9">
          <mxGeometry relative="1" as="geometry" />
        </mxCell>
        <mxCell id="0lbvmDNEnkcKm_lzGgN5-92" value="&lt;blockquote style=&quot;margin: 0 0 0 40px; border: none; padding: 0px;&quot;&gt;&lt;div style=&quot;text-align: left;&quot;&gt;&lt;span style=&quot;background-color: initial; color: var(--tw-prose-bold); border: 0px solid rgb(227, 227, 227); box-sizing: border-box; --tw-border-spacing-x: 0; --tw-border-spacing-y: 0; --tw-translate-x: 0; --tw-translate-y: 0; --tw-rotate: 0; --tw-skew-x: 0; --tw-skew-y: 0; --tw-scale-x: 1; --tw-scale-y: 1; --tw-pan-x: ; --tw-pan-y: ; --tw-pinch-zoom: ; --tw-scroll-snap-strictness: proximity; --tw-gradient-from-position: ; --tw-gradient-via-position: ; --tw-gradient-to-position: ; --tw-ordinal: ; --tw-slashed-zero: ; --tw-numeric-figure: ; --tw-numeric-spacing: ; --tw-numeric-fraction: ; --tw-ring-inset: ; --tw-ring-offset-width: 0px; --tw-ring-offset-color: #fff; --tw-ring-color: rgba(69,89,164,.5); --tw-ring-offset-shadow: 0 0 transparent; --tw-ring-shadow: 0 0 transparent; --tw-shadow: 0 0 transparent; --tw-shadow-colored: 0 0 transparent; --tw-blur: ; --tw-brightness: ; --tw-contrast: ; --tw-grayscale: ; --tw-hue-rotate: ; --tw-invert: ; --tw-saturate: ; --tw-sepia: ; --tw-drop-shadow: ; --tw-backdrop-blur: ; --tw-backdrop-brightness: ; --tw-backdrop-contrast: ; --tw-backdrop-grayscale: ; --tw-backdrop-hue-rotate: ; --tw-backdrop-invert: ; --tw-backdrop-opacity: ; --tw-backdrop-saturate: ; --tw-backdrop-sepia: ; --tw-contain-size: ; --tw-contain-layout: ; --tw-contain-paint: ; --tw-contain-style: ; font-weight: 600; margin-top: 1.25em; margin-bottom: 1.25em;&quot;&gt;Interpretation&lt;/span&gt;&lt;span style=&quot;background-color: initial;&quot;&gt;&amp;nbsp;&lt;/span&gt;&lt;/div&gt;&lt;div style=&quot;text-align: left;&quot;&gt;How is the code intrepretated and how much ambiguity is in the text, the interpretation can be classified / ranked&lt;/div&gt;&lt;/blockquote&gt;" style="rounded=0;whiteSpace=wrap;html=1;fillColor=#fff2cc;strokeColor=#d6b656;" vertex="1" parent="1">
          <mxGeometry x="2190" y="150" width="420" height="100" as="geometry" />
        </mxCell>
        <mxCell id="0lbvmDNEnkcKm_lzGgN5-93" style="edgeStyle=orthogonalEdgeStyle;rounded=0;orthogonalLoop=1;jettySize=auto;html=1;exitX=1;exitY=0.5;exitDx=0;exitDy=0;entryX=0.106;entryY=1.025;entryDx=0;entryDy=0;entryPerimeter=0;" edge="1" parent="1" source="0lbvmDNEnkcKm_lzGgN5-21" target="0lbvmDNEnkcKm_lzGgN5-92">
          <mxGeometry relative="1" as="geometry" />
        </mxCell>
        <mxCell id="0lbvmDNEnkcKm_lzGgN5-94" style="edgeStyle=orthogonalEdgeStyle;rounded=0;orthogonalLoop=1;jettySize=auto;html=1;exitX=1;exitY=0.5;exitDx=0;exitDy=0;" edge="1" parent="1" source="0lbvmDNEnkcKm_lzGgN5-19">
          <mxGeometry relative="1" as="geometry">
            <mxPoint x="2330" y="250" as="targetPoint" />
          </mxGeometry>
        </mxCell>
        <mxCell id="0lbvmDNEnkcKm_lzGgN5-95" style="edgeStyle=orthogonalEdgeStyle;rounded=0;orthogonalLoop=1;jettySize=auto;html=1;exitX=1;exitY=0.5;exitDx=0;exitDy=0;entryX=0.689;entryY=1.038;entryDx=0;entryDy=0;entryPerimeter=0;" edge="1" parent="1" source="0lbvmDNEnkcKm_lzGgN5-20" target="0lbvmDNEnkcKm_lzGgN5-92">
          <mxGeometry relative="1" as="geometry" />
        </mxCell>
        <mxCell id="0lbvmDNEnkcKm_lzGgN5-97" value="&lt;h1 style=&quot;margin-top: 0px;&quot;&gt;Rule classification Considerations&lt;/h1&gt;&lt;p&gt;&lt;font face=&quot;ui-sans-serif, -apple-system, system-ui, Segoe UI, Roboto, Ubuntu, Cantarell, Noto Sans, sans-serif, Helvetica, Apple Color Emoji, Arial, Segoe UI Emoji, Segoe UI Symbol&quot; color=&quot;#0d0d0d&quot;&gt;&lt;span style=&quot;white-space-collapse: preserve; background-color: rgb(255, 255, 255);&quot;&gt;Some considerations on making sure every country are handling rules in the same manner as possible. It begins w. defining the rules in typologies&lt;/span&gt;&lt;/font&gt;&lt;/p&gt;" style="text;html=1;whiteSpace=wrap;overflow=hidden;rounded=0;" vertex="1" parent="1">
          <mxGeometry x="2580" y="980" width="490" height="110" as="geometry" />
        </mxCell>
      </root>
    </mxGraphModel>
  </diagram>
</mxfile>
